<svg viewBox="0 0 95 85" version="1.1" xmlns="http://www.w3.org/2000/svg" xmlns:xlink="http://www.w3.org/1999/xlink">
    <g>
        <rect fill="#002d55" width="84.8" height="84.8"></rect>
        <path fill="#FFFFFF" d="M8.6,56.4V27.2h7.2c6.7,0,9.7,2.2,9.7,7.6c0,3-1.3,5.1-3.8,6.2v0.1c3.3,1.2,4.5,3.7,4.5,7 c0,6.7-4.3,8.4-10,8.4H8.6z M16,39.4c2.5,0,4.7-0.9,4.7-4.1c0-3.1-2.3-3.7-4.7-3.7h-2.7v7.8H16z M16.5,52.1 c3.4,0,4.8-1.2,4.8-4.3c0-3.2-1.6-4.5-4.8-4.5h-3.2v8.8H16.5z"></path>
        <path fill="#FFFFFF" d="M47.4,46.9c-0.9,6.5-3.6,9.9-8.9,9.9c-7,0-9.3-5.7-9.3-15.1c0-8.4,2.4-14.8,9.3-14.8 c5.6,0,7.8,3.5,8.6,9.4l-4.5,0.4c-0.6-3.7-1.9-5.5-4-5.5c-3,0-4.5,3.1-4.5,10.5c0,8.1,1.3,10.8,4.5,10.8c2.3,0,3.7-2.1,4.3-6.1 L47.4,46.9z"></path>
        <path fill="#FFFFFF" d="M51.5,56.4V27.2h4.8v29.2H51.5z"></path>
        <path fill="#FFFFFF" d="M66.3,56.4V31.6h-6v-4.4h16.8v4.4h-6v24.8H66.3z"></path>
        <path fill="#FFFFFF" d="M86.8,7.1V2h-1.2V1h3.6V2h-1.2v5.1H86.8z M93.8,7.1V2.8h0l-1,4.3h-0.9l-1-4.3h0v4.3h-1.1V1h1.6l0.9,3.8h0 L93.3,1h1.6v6.2H93.8z"></path>
    </g>
</svg>